<?xml version="1.0" encoding="UTF-8"?>
<svg id="Camada_1" data-name="Camada 1" xmlns="http://www.w3.org/2000/svg" viewBox="0 0 204.98 173.04">
  <defs>
    <style>
      .cls-1 {
        fill: #ffce00;
      }
    </style>
  </defs>
  <polygon class="cls-1" points="119.33 115.51 84.06 115.51 84.06 132.33 125.76 132.33 125.76 91.21 134.58 91.21 134.58 109.08 146.5 108.84 146.5 96.69 184.38 96.69 184.38 24.25 172.71 24.25 172.71 32.59 141.73 32.59 141.73 62.85 135.53 62.85 135.53 21.63 123.62 21.63 123.62 65.95 75.25 65.95 75.25 17.95 62.38 17.95 62.38 70.71 68.39 70.71 68.39 75.72 65 75.72 65 89.3 30.21 89.3 30.21 78.1 17.11 78.1 17.11 99.78 30.69 99.78 75.96 99.78 75.96 84.3 119.33 84.3 119.33 115.51"/>
  <rect class="cls-1" x="17.11" y="51.78" width="47.79" height="18.86"/>
  <rect class="cls-1" x="17.11" y="17.95" width="8.55" height="34.56"/>
  <rect class="cls-1" x="32.41" y="98.5" width="34.5" height="24.82"/>
  <rect class="cls-1" x="65.08" y="99.38" width="10.9" height="8.76"/>
  <rect class="cls-1" x="80.6" y="81.16" width="39.45" height="24.64"/>
  <rect class="cls-1" x="83.52" y="21.5" width="41.8" height="12.21"/>
  <rect class="cls-1" x="87.17" y="46.4" width="38.15" height="10.48"/>
  <rect class="cls-1" x="119.57" y="56.48" width="10.48" height="10.48"/>
  <rect class="cls-1" x="141.7" y="12.33" width="10.48" height="25.76"/>
</svg>